<?xml version="1.0" encoding="UTF-8"?>
<svg width="48px" height="48px" viewBox="0 0 48 48" version="1.1" xmlns="http://www.w3.org/2000/svg">
    <g fill="#7c3aed">
        <!-- Голова робота -->
        <rect x="14" y="6" width="20" height="18" rx="4" />
        
        <!-- Глаза -->
        <circle cx="20" cy="14" r="2" />
        <circle cx="28" cy="14" r="2" />
        
        <!-- Наушники -->
        <path d="M10,16 C7,16 4,18 4,22 C4,26 6,28 8,28 L14,28" />
        <path d="M38,16 C41,16 44,18 44,22 C44,26 42,28 40,28 L34,28" />
        
        <!-- Тело -->
        <path d="M16,24 L16,34 C16,37.3137085 18.6862915,40 22,40 L26,40 C29.3137085,40 32,37.3137085 32,34 L32,24" />
        
        <!-- Руки -->
        <path d="M10,20 C7,20 4,22 4,26 C4,30 6,32 10,32" />
        <path d="M38,20 C41,20 44,22 44,26 C44,30 42,32 38,32" />
        
        <!-- Рот -->
        <path d="M20,20 L28,20" />
    </g>
</svg>
